<svg width="144" height="112" viewBox="0 0 144 112" fill="none" xmlns="http://www.w3.org/2000/svg">
<path d="M101.608 15.01C100.363 15.01 99.1345 15.0736 97.9229 15.1689C109.134 25.3057 116.13 39.6608 116.13 55.581C116.13 71.5011 109.134 85.8642 97.9229 95.993C99.1428 96.0963 100.371 96.1519 101.608 96.1519C125.018 96.1519 143.998 77.9836 143.998 55.573C143.998 33.1625 125.018 14.9941 101.608 14.9941V15.01Z" fill="url(#paint0_linear_1535_1414)"/>
<path d="M55.1618 55.5854C55.1618 33.5801 71.8589 15.3243 93.7842 11.7574C83.9336 4.39313 71.5353 0 58.0664 0C26 0 0 24.8891 0 55.5854C0 86.2818 26 111.171 58.0664 111.171C71.5353 111.171 83.9336 106.778 93.7842 99.4135C71.8589 95.8466 55.1618 77.5908 55.1618 55.5854Z" fill="#1E2E3D"/>
<defs>
<linearGradient id="paint0_linear_1535_1414" x1="98.2562" y1="95.8544" x2="126.575" y2="23.5244" gradientUnits="userSpaceOnUse">
<stop offset="0.25" stop-color="#A1C4FD"/>
<stop offset="1" stop-color="#C2E9FB"/>
</linearGradient>
</defs>
</svg>
